PathFileType	4	(X/Y/Z)	Walk1.trc
DataRate	CameraRate	NumFrames	NumMarkers	Units	OrigDataRate	OrigDataStartFrame	OrigNumFrames
200.000000	200.000000	9	56	mm	200.000000	883	966
Frame#	Times		LToe		LBHD		RLFC		LACR1		RTH2		C7		LElbow		LUA1		RWRU		LCAR		RMT1		RCAL		LMFC		LWRU		RMT5		RMFC		RTB2		RToe		LWRR		RCAR		RTB3		RTB4		LTH4		RTB1		RFA1		LTH1		LPSI		RElbow		LFHD		RBHD		RPSI		RElbowM		LTH3		T10		RACR1		LASI		LMMAL		LTH2		RTH3		LLFC		LCAL		RMMAL		RBack		RTH1		LTB2		LTB3		RTH4		RFHD		RLMAL		LMT5		RASI		RWRR		LMT1		LLMAL		LTB1		LTB4
			X1	Y1	Z1	X2	Y2	Z2	X3	Y3	Z3	X4	Y4	Z4	X5	Y5	Z5	X6	Y6	Z6	X7	Y7	Z7	X8	Y8	Z8	X9	Y9	Z9	X10	Y10	Z10	X11	Y11	Z11	X12	Y12	Z12	X13	Y13	Z13	X14	Y14	Z14	X15	Y15	Z15	X16	Y16	Z16	X17	Y17	Z17	X18	Y18	Z18	X19	Y19	Z19	X20	Y20	Z20	X21	Y21	Z21	X22	Y22	Z22	X23	Y23	Z23	X24	Y24	Z24	X25	Y25	Z25	X26	Y26	Z26	X27	Y27	Z27	X28	Y28	Z28	X29	Y29	Z29	X30	Y30	Z30	X31	Y31	Z31	X32	Y32	Z32	X33	Y33	Z33	X34	Y34	Z34	X35	Y35	Z35	X36	Y36	Z36	X37	Y37	Z37	X38	Y38	Z38	X39	Y39	Z39	X40	Y40	Z40	X41	Y41	Z41	X42	Y42	Z42	X43	Y43	Z43	X44	Y44	Z44	X45	Y45	Z45	X46	Y46	Z46	X47	Y47	Z47	X48	Y48	Z48	X49	Y49	Z49	X50	Y50	Z50	X51	Y51	Z51	X52	Y52	Z52	X53	Y53	Z53	X54	Y54	Z54	X55	Y55	Z55	X56	Y56	Z56

883	4.415	1118.8	70.183	-16.859	755.48	1587.4	-52.164	674.55	478.25	159.04	796.57	1388.1	-150.09	753.56	619.34	142.17	709.3	1456.8	16.503	628.94	1088.8	-252.73	711.83	1202.8	-221.41	737.08	804.98	312.36	592.74	953.83	-265.05	432.38	33.014	66.885	287.12	171.06	56.899	857.83	493.23	33.418	649.91	768.61	-266.9	396.23	46.173	141.75	646.03	455.2	34.272	541.31	284.51	146.83	476.81	23.405	106.37	587.09	809.65	-269.86	807.55	790.52	336.65	479.03	224.02	71.068	548.63	278.48	72.3	842.63	668.28	-122.7	624.43	339.43	76.966	715.42	924.71	331.64	810.91	753.85	-141.94	600.73	1019.2	-23.429	680.04	1082.6	319.65	934.31	1599.4	-18.714	753.92	1586.5	84.768	589.78	1020.9	45.554	648.61	1082.5	240.77	872.86	581.01	-98.732	618.45	1202.7	22.163	813.04	1403.6	173.06	803.18	1004.7	-119	953.97	72.98	18.662	889.18	694.09	-71.321	683.15	524.93	163.46	878.96	519.86	-93.951	872.42	31.628	-16.768	373.65	148.99	42.684	680.52	1354.7	172.38	693.58	712.69	193.6	947.2	311.16	-77.893	954.2	218.6	-8.3155	691.58	617.74	182.88	934.4	1600.3	55.064	346.41	163.87	119.49	1051.6	31.038	-77.184	761.38	968.33	209.81	811.74	832.22	283.96	1085.1	37.217	-2.7593	937.01	61.908	-64.669	939.37	403.34	-6.8392	946.18	310.94	-6.1282
884	4.42	1119.9	68.729	-17.04	760.95	1587.8	-52.721	685.56	477.97	159.82	802.51	1388.7	-150.53	762.92	619.81	141.84	714.99	1457.5	15.879	636.51	1088.4	-253.12	718.85	1202.8	-221.7	741.26	805.3	311.32	600.99	953.29	-265.43	435.31	34.456	67.147	294.65	177.27	58.739	863.48	494.08	33.415	658.91	768.29	-267.09	401.08	49.098	142.14	656.9	454.75	34.707	550.34	286.36	147.86	479.27	23.997	106.62	596.01	809.13	-270.24	811.57	790.54	335.84	487.11	226.51	72.304	557.48	280.01	73.359	848.3	669.09	-123.07	634.14	339.97	77.765	720.03	925.13	330.67	816.74	754.71	-142.35	606.34	1019.5	-23.574	685.25	1083.1	318.65	939.77	1599.9	-19.257	759.4	1586.9	84.208	595.47	1021	45.409	654.06	1083.3	239.68	878.37	581.78	-99.078	624.02	1203.2	21.615	818.67	1404	172.34	808.96	1005.7	-119.49	954.59	72.71	18.639	894.86	694.8	-71.682	693.72	524.52	163.82	884.14	520.13	-94.289	872.72	31.903	-16.801	380.64	152.99	44.152	686.15	1355.3	171.89	702.2	712.73	193.38	950.42	310.77	-78.058	956.35	218.22	-8.3924	701.13	617.66	183.13	939.87	1600.9	54.51	353.88	168.27	121.06	1051.9	30.237	-77.609	768.56	969.44	208.22	816.1	832.25	283.21	1085.6	36.206	-3.0674	937.53	61.73	-64.766	943.58	403.13	-7.1168	949.36	310.64	-6.3004
885	4.425	1121	67.406	-17.17	766.38	1588.3	-53.228	696.62	477.77	160.59	808.39	1389.3	-150.94	772.32	620.33	141.56	720.59	1458.1	15.291	644.08	1088	-253.53	725.86	1202.8	-222	745.41	805.63	310.28	609.3	952.75	-265.8	438.86	36.114	67.468	302.51	183.21	60.626	868.94	494.8	33.354	668.07	768.02	-267.28	406.52	52.095	142.59	667.89	454.41	35.111	559.65	288.18	148.82	482.42	24.757	106.92	605.06	808.61	-270.6	815.57	790.56	335.02	495.47	228.99	73.49	566.56	281.57	74.359	853.69	669.72	-123.53	644.01	340.58	78.493	724.62	925.54	329.7	822.42	755.43	-142.82	611.91	1019.8	-23.716	690.42	1083.7	317.68	945.19	1600.5	-19.764	764.84	1587.4	83.7	601.13	1021.1	45.254	659.4	1084	238.62	883.49	582.33	-99.531	629.55	1203.7	21.079	824.23	1404.5	171.66	814.62	1006.6	-120.01	955.14	72.457	18.659	900.45	695.28	-72.289	704.32	524.17	164.17	889.05	520.3	-94.622	872.98	32.144	-16.823	387.95	156.91	45.6	691.72	1355.8	171.42	710.84	712.83	193.21	953.54	310.37	-78.18	958.4	217.84	-8.4203	710.71	617.63	183.37	945.3	1601.5	53.999	361.72	172.54	122.63	1052.1	29.572	-77.99	775.64	970.49	206.5	820.43	832.3	282.46	1086.1	35.352	-3.3206	938.01	61.574	-64.829	947.64	402.9	-7.355	952.41	310.33	-6.4302
886	4.43	1122.1	66.201	-17.253	771.75	1588.7	-53.687	707.7	477.65	161.33	814.21	1389.9	-151.32	781.73	620.92	141.3	726.09	1458.7	14.738	651.65	1087.7	-253.96	732.84	1202.8	-222.3	749.54	805.96	309.24	617.66	952.19	-266.18	443.1	37.98	67.858	310.65	188.84	62.539	874.17	495.4	33.231	677.38	767.78	-267.45	412.56	55.133	143.11	678.96	454.19	35.48	569.22	289.95	149.7	486.32	25.703	107.28	614.23	808.06	-270.94	819.55	790.57	334.19	504.09	231.43	74.613	575.84	283.17	75.282	858.78	670.18	-124.04	654.02	341.28	79.14	729.17	925.95	328.76	827.92	756.02	-143.34	617.42	1020.1	-23.862	695.54	1084.2	316.76	950.57	1601.1	-20.232	770.23	1587.9	83.24	606.76	1021.3	45.082	664.62	1084.7	237.59	888.22	582.66	-100.07	635.05	1204.1	20.559	829.71	1404.9	171.02	820.15	1007.5	-120.57	955.62	72.221	18.718	905.95	695.5	-73.137	714.92	523.91	164.49	893.69	520.37	-94.94	873.21	32.352	-16.834	395.59	160.72	47.019	697.21	1356.4	170.95	719.47	712.99	193.06	956.55	309.97	-78.254	960.33	217.46	-8.3979	720.28	617.68	183.58	950.68	1602.1	53.532	369.92	176.64	124.19	1052.3	29.029	-78.323	782.6	971.47	204.68	824.74	832.35	281.69	1086.6	34.642	-3.5182	938.44	61.441	-64.857	951.55	402.65	-7.5415	955.33	310.02	-6.5114
887	4.435	1123.1	65.097	-17.296	777.07	1589.2	-54.098	718.76	477.64	162.02	819.97	1390.6	-151.67	791.13	621.59	141.09	731.52	1459.3	14.22	659.2	1087.3	-254.42	739.79	1202.8	-222.61	753.66	806.29	308.21	626.07	951.62	-266.56	448.06	40.033	68.325	319.08	194.12	64.459	879.12	495.88	33.039	686.85	767.57	-267.63	419.21	58.185	143.71	690.06	454.12	35.81	579.03	291.67	150.5	491.04	26.847	107.68	623.52	807.5	-271.26	823.52	790.57	333.34	512.95	233.85	75.663	585.3	284.81	76.117	863.58	670.45	-124.6	664.13	342.05	79.695	733.7	926.34	327.83	833.23	756.46	-143.92	622.9	1020.4	-24.018	700.6	1084.7	315.86	955.9	1601.7	-20.659	775.57	1588.4	82.828	612.36	1021.4	44.893	669.73	1085.4	236.59	892.57	582.78	-100.67	640.51	1204.6	20.059	835.11	1405.4	170.43	825.57	1008.4	-121.16	956.05	72.003	18.813	911.34	695.5	-74.208	725.49	523.76	164.78	898.09	520.36	-95.236	873.41	32.533	-16.835	403.53	164.42	48.403	702.62	1356.9	170.49	728.05	713.22	192.92	959.47	309.57	-78.278	962.17	217.1	-8.3284	729.84	617.8	183.77	956.01	1602.6	53.11	378.45	180.57	125.73	1052.5	28.594	-78.607	789.43	972.37	202.76	829.03	832.41	280.92	1087	34.062	-3.6608	938.84	61.331	-64.855	955.29	402.39	-7.6693	958.12	309.7	-6.5423
888	4.44	1124.1	64.081	-17.307	782.34	1589.8	-54.462	729.79	477.73	162.63	825.66	1391.3	-152.01	800.52	622.35	140.9	736.85	1459.8	13.736	666.75	1086.9	-254.89	746.7	1202.9	-222.93	757.76	806.6	307.17	634.52	951.02	-266.93	453.79	42.244	68.874	327.77	199.03	66.362	883.79	496.23	32.773	696.47	767.39	-267.79	426.47	61.222	144.37	701.17	454.22	36.099	589.06	293.33	151.21	496.59	28.194	108.13	632.93	806.92	-271.55	827.47	790.57	332.49	522.02	236.22	76.632	594.92	286.48	76.857	868.11	670.55	-125.18	674.32	342.92	80.152	738.18	926.71	326.92	838.35	756.75	-144.53	628.34	1020.8	-24.187	705.61	1085.2	315	961.18	1602.3	-21.046	780.86	1588.9	82.46	617.93	1021.6	44.684	674.72	1086.1	235.63	896.58	582.71	-101.31	645.94	1205.1	19.581	840.43	1405.8	169.89	830.86	1009.1	-121.77	956.42	71.803	18.938	916.63	695.29	-75.468	736.01	523.72	165.03	902.26	520.28	-95.505	873.59	32.688	-16.826	411.78	167.98	49.744	707.95	1357.4	170.04	736.55	713.52	192.78	962.29	309.17	-78.254	963.91	216.74	-8.218	739.35	618.02	183.93	961.3	1603.2	52.732	387.31	184.31	127.23	1052.7	28.254	-78.843	796.12	973.17	200.75	833.3	832.48	280.15	1087.4	33.595	-3.751	939.2	61.239	-64.823	958.86	402.12	-7.737	960.77	309.39	-6.5257
889	4.445	1125	63.141	-17.295	787.57	1590.4	-54.781	740.77	477.96	163.17	831.28	1391.9	-152.32	809.88	623.2	140.75	742.1	1460.4	13.286	674.29	1086.5	-255.38	753.57	1203	-223.27	761.86	806.9	306.15	643.02	950.4	-267.31	460.28	44.575	69.505	336.71	203.54	68.227	888.14	496.46	32.426	706.24	767.25	-267.95	434.34	64.215	145.11	712.25	454.48	36.344	599.29	294.95	151.84	502.97	29.733	108.64	642.46	806.31	-271.83	831.43	790.56	331.63	531.32	238.54	77.519	604.71	288.18	77.498	872.38	670.5	-125.76	684.6	343.88	80.511	742.64	927.06	326.02	843.29	756.9	-145.18	633.74	1021.1	-24.374	710.57	1085.7	314.17	966.41	1602.9	-21.391	786.11	1589.5	82.136	623.47	1021.7	44.454	679.6	1086.7	234.7	900.28	582.47	-101.96	651.34	1205.6	19.129	845.66	1406.3	169.42	836.04	1009.9	-122.4	956.74	71.62	19.086	921.81	694.91	-76.872	746.48	523.82	165.26	906.22	520.15	-95.744	873.74	32.823	-16.809	420.33	171.39	51.037	713.2	1357.9	169.57	744.94	713.89	192.63	965.02	308.79	-78.191	965.55	216.39	-8.0755	748.81	618.34	184.04	966.54	1603.8	52.397	396.47	187.84	128.69	1052.9	27.993	-79.035	802.65	973.87	198.69	837.56	832.56	279.38	1087.8	33.227	-3.7933	939.53	61.166	-64.767	962.26	401.84	-7.7488	963.3	309.07	-6.4677
890	4.45	1125.9	62.265	-17.268	792.74	1591	-55.056	751.69	478.31	163.62	836.82	1392.6	-152.62	819.2	624.17	140.61	747.27	1460.9	12.868	681.82	1086.1	-255.89	760.4	1203.1	-223.61	765.95	807.19	305.13	651.56	949.76	-267.69	467.52	46.984	70.216	345.9	207.63	70.03	892.18	496.59	31.991	716.17	767.16	-268.11	442.81	67.138	145.9	723.28	454.94	36.541	609.7	296.51	152.39	510.19	31.445	109.2	652.1	805.7	-272.08	835.38	790.54	330.77	540.83	240.81	78.322	614.64	289.91	78.045	876.44	670.33	-126.34	694.95	344.93	80.775	747.06	927.39	325.14	848.06	756.94	-145.84	639.11	1021.5	-24.581	715.48	1086.1	313.36	971.6	1603.5	-21.696	791.31	1590	81.854	628.98	1021.9	44.207	684.39	1087.3	233.8	903.74	582.1	-102.58	656.72	1206	18.704	850.82	1406.8	169.02	841.11	1010.6	-123.04	957.03	71.455	19.253	926.86	694.39	-78.367	756.88	524.09	165.47	910.01	519.99	-95.952	873.88	32.938	-16.784	429.19	174.61	52.276	718.36	1358.4	169.11	753.19	714.34	192.46	967.65	308.41	-78.096	967.11	216.06	-7.9108	758.21	618.76	184.11	971.73	1604.5	52.104	405.93	191.15	130.09	1053.1	27.8	-79.188	809.02	974.48	196.59	841.8	832.64	278.61	1088.1	32.941	-3.7941	939.83	61.106	-64.689	965.5	401.55	-7.7137	965.7	308.76	-6.377
891	4.455	1126.8	61.444	-17.236	797.86	1591.6	-55.288	762.54	478.81	163.97	842.3	1393.3	-152.9	828.48	625.25	140.5	752.37	1461.4	12.482	689.33	1085.7	-256.42	767.18	1203.2	-223.95	770.03	807.47	304.13	660.14	949.11	-268.07	475.52	49.425	71.004	355.34	211.29	71.754	895.93	496.61	31.461	726.26	767.11	-268.25	451.85	69.966	146.76	734.25	455.57	36.686	620.29	298.04	152.85	518.22	33.302	109.81	661.86	805.07	-272.33	839.35	790.51	329.9	550.55	243.01	79.045	624.73	291.65	78.502	880.33	670.07	-126.9	705.36	346.06	80.952	751.45	927.69	324.27	852.66	756.87	-146.51	644.45	1021.9	-24.811	720.32	1086.5	312.57	976.74	1604.2	-21.961	796.46	1590.6	81.613	634.46	1022.2	43.944	689.1	1087.8	232.93	907.01	581.64	-103.17	662.06	1206.6	18.307	855.89	1407.3	168.67	846.09	1011.2	-123.7	957.29	71.305	19.432	931.76	693.79	-79.893	767.22	524.53	165.68	913.66	519.81	-96.132	873.98	33.037	-16.752	438.37	177.62	53.458	723.45	1358.9	168.64	761.26	714.86	192.27	970.19	308.05	-77.981	968.59	215.74	-7.7337	767.54	619.3	184.14	976.88	1605.1	51.849	415.67	194.22	131.42	1053.2	27.662	-79.306	815.23	974.98	194.46	846.03	832.73	277.85	1088.4	32.724	-3.7612	940.09	61.056	-64.592	968.59	401.25	-7.6443	968	308.45	-6.2638
